<svg xmlns="http://www.w3.org/2000/svg" width="72" height="70" fill="none" viewBox="0 0 72 70"><path stroke="#74808B" stroke-width="2" d="M1 36C1 27.1634 8.16344 20 17 20H60C66.0751 20 71 24.9249 71 31V55C71 56.1046 70.1046 57 69 57H3C1.89543 57 1 56.1046 1 55V36Z"/><path stroke="#74808B" stroke-width="2" d="M1 36C1 27.1634 8.16344 20 17 20V20C25.8366 20 33 27.1634 33 36V57H1.72549C1.32481 57 1 56.6752 1 56.2745V36Z"/><path stroke="#2D95F0" stroke-linecap="round" stroke-width="2" d="M10 34H22"/><path stroke="#2D95F0" stroke-linecap="round" stroke-width="2" d="M10 38H17" opacity=".5"/><path stroke="#74808B" stroke-width="2" d="M37 57H29V67C29 68.1046 29.8954 69 31 69H35C36.1046 69 37 68.1046 37 67V57Z"/><path stroke="#74808B" stroke-miterlimit="10" stroke-width="2" d="M46 11.4956H59.9942V1H50.3732C47.9679 1 46 2.96793 46 5.37318V31"/><circle cx="46" cy="33" r="3" stroke="#74808B" stroke-width="2"/></svg>